PathFileType   4   (X/Y/Z)
DataRate	CameraRate	NumFrames	NumMarkers	Units	OrigDataRate	OrigDataStartFrame	OrigNumFrames
120.0	120.0	9	37	mm	120.0	148	168
Frame#	Time	midhip	hip_r	hip_l	knee_r	knee_l	ankle_r	ankle_l	midasis	asis_r	asis_l	psis_r	psis_l	epicondLat_r	epicondLat_l	epicondMed_r	epicondMed_l	malleolusLat_r	malleolusLat_l	malleolusMedv_r	malleolusMedv_l	neck	subclavicle_r	subclavicle_l	sternalnotch	xyphoidprocess	thighwand_r	thighwand_l	upperleg1_r	upperleg1_l	upperleg2_r	upperleg2_l	shankwand_r	shankwand_l	lowerleg1_r	lowerleg1_l	toe_r	toe_l
 	 	X1	Y1	Z1	X2	Y2	Z2	X3	Y3	Z3	X4	Y4	Z4	X5	Y5	Z5	X6	Y6	Z6	X7	Y7	Z7	X8	Y8	Z8	X9	Y9	Z9	X10	Y10	Z10	X11	Y11	Z11	X12	Y12	Z12	X13	Y13	Z13	X14	Y14	Z14	X15	Y15	Z15	X16	Y16	Z16	X17	Y17	Z17	X18	Y18	Z18	X19	Y19	Z19	X20	Y20	Z20	X21	Y21	Z21	X22	Y22	Z22	X23	Y23	Z23	X24	Y24	Z24	X25	Y25	Z25	X26	Y26	Z26	X27	Y27	Z27	X28	Y28	Z28	X29	Y29	Z29	X30	Y30	Z30	X31	Y31	Z31	X32	Y32	Z32	X33	Y33	Z33	X34	Y34	Z34	X35	Y35	Z35	X36	Y36	Z36	X37	Y37	Z37

	148	1.50833	805.836	826.449	-217.700	790.125	799.714	-149.067	788.003	807.664	-300.972	751.381	440.191	-182.582	941.731	444.128	-327.621	691.930	66.745	-217.024	1026.449	88.732	-344.775	879.380	877.566	-219.370	877.125	871.216	-100.284	881.636	883.915	-338.457	681.694	938.357	-189.597	679.537	932.794	-244.415	752.417	434.698	-124.852	943.741	449.211	-385.363	756.471	445.113	-229.931	951.648	449.096	-269.390	672.403	66.635	-182.115	1009.781	86.511	-381.069	707.897	76.413	-247.627	1037.575	102.047	-320.856	773.564	1380.304	-201.698	894.439	1307.960	-159.957	888.232	1304.263	-265.764	887.674	1303.223	-212.044	920.832	1230.389	-215.243	929.519	559.127	-179.337	925.095	584.760	-470.142	869.812	614.608	-121.666	851.666	605.721	-404.423	846.475	529.867	-126.284	892.476	527.567	-398.034	665.409	140.504	-105.369	1084.854	236.587	-339.834	674.890	151.411	-147.284	1045.722	225.504	-343.900	784.186	37.967	-178.165	1131.403	89.120	-374.165
	149	1.51667	810.446	826.043	-217.716	794.576	799.240	-149.289	792.592	807.055	-301.203	754.488	440.089	-182.795	947.196	443.967	-326.556	692.255	67.019	-217.389	1040.336	90.281	-344.560	883.875	877.054	-219.579	881.512	870.811	-100.515	886.238	883.298	-338.643	686.169	937.873	-189.782	684.020	932.125	-244.750	755.448	434.596	-125.064	948.992	448.766	-384.329	760.521	445.035	-230.379	955.104	447.276	-268.736	672.544	67.080	-182.583	1023.858	87.793	-380.923	708.290	76.888	-247.952	1050.711	104.311	-320.521	778.482	1379.886	-202.040	898.744	1307.271	-160.209	893.186	1304.022	-265.904	892.258	1302.710	-212.369	925.338	1229.880	-215.568	933.368	558.437	-179.390	929.699	583.704	-469.632	873.593	614.305	-121.600	856.127	604.526	-403.927	850.316	529.691	-126.403	896.684	526.020	-397.475	665.714	140.877	-105.951	1094.964	239.603	-338.912	675.387	151.995	-147.594	1056.000	227.638	-342.739	784.348	38.019	-178.160	1145.791	91.907	-372.447
	150	1.52500	814.748	825.186	-217.691	799.088	798.717	-149.570	797.225	806.429	-301.490	757.723	439.951	-183.015	952.580	443.732	-325.643	692.805	67.208	-217.679	1053.555	91.865	-344.251	888.415	876.517	-219.839	885.958	870.355	-100.808	890.873	882.678	-338.870	690.698	937.345	-190.036	688.541	931.412	-245.107	758.623	434.465	-125.282	954.302	448.318	-383.435	763.324	446.256	-231.499	957.991	443.768	-270.025	672.845	67.461	-183.016	1037.207	89.099	-380.652	708.577	77.031	-248.394	1063.509	106.762	-320.157	782.934	1379.648	-202.279	903.230	1306.586	-160.407	898.098	1303.885	-266.500	896.899	1302.174	-212.816	930.007	1229.468	-216.239	937.243	557.715	-179.512	934.634	582.708	-469.047	877.847	613.788	-121.986	861.309	603.474	-403.610	853.714	529.925	-126.983	900.752	524.929	-398.009	666.036	141.322	-106.542	1104.644	242.461	-338.154	675.849	152.310	-148.212	1065.648	229.780	-341.798	784.505	38.055	-178.201	1159.400	94.673	-370.866
	151	1.53333	819.692	824.972	-217.624	803.685	798.151	-149.895	801.918	805.776	-301.821	761.046	439.773	-183.243	957.878	443.417	-324.887	693.529	67.314	-217.879	1066.065	93.431	-343.849	893.019	875.957	-220.150	890.487	869.862	-101.148	895.550	882.052	-339.151	695.293	936.758	-190.367	693.110	930.658	-245.486	761.902	434.298	-125.508	959.675	447.869	-382.688	767.307	445.997	-231.945	962.577	442.805	-270.224	673.268	67.780	-183.393	1049.789	90.373	-380.260	709.827	76.911	-248.722	1075.408	109.104	-319.646	787.837	1379.053	-202.563	908.080	1305.832	-160.908	902.637	1303.250	-267.087	901.569	1301.621	-213.337	934.586	1228.735	-216.948	941.141	556.967	-179.691	939.925	581.782	-468.385	881.703	613.555	-122.563	865.123	602.716	-403.272	857.517	529.952	-127.373	905.486	524.199	-397.971	666.379	141.853	-107.132	1113.908	245.123	-337.562	676.554	152.312	-148.946	1075.326	231.916	-341.842	784.663	38.077	-178.277	1172.208	97.351	-369.465
	152	1.54167	824.541	824.511	-217.604	808.381	797.556	-150.229	806.664	805.087	-302.160	764.427	439.557	-183.476	963.087	443.022	-324.279	694.366	67.360	-218.001	1077.829	94.922	-343.365	897.686	875.381	-220.499	895.116	869.359	-101.515	900.256	881.403	-339.482	699.962	936.105	-190.785	697.733	929.869	-245.891	765.255	434.094	-125.740	965.109	447.427	-382.076	772.013	445.620	-233.547	966.218	442.488	-268.394	673.778	68.055	-183.714	1061.574	91.559	-379.758	711.967	76.346	-248.241	1086.665	110.977	-319.108	792.518	1378.395	-203.107	912.846	1305.001	-161.479	907.288	1302.741	-267.636	906.256	1301.047	-213.901	939.273	1228.067	-217.767	945.087	556.206	-179.921	945.584	580.932	-467.644	885.388	613.375	-122.792	870.587	602.297	-403.169	861.328	529.059	-128.159	910.643	523.230	-397.054	666.754	142.460	-107.696	1122.775	247.548	-337.128	677.918	152.519	-149.271	1084.974	233.816	-342.036	784.820	38.089	-178.364	1184.192	99.865	-368.279
	153	1.55000	829.063	823.506	-218.000	813.177	796.951	-150.544	811.458	804.350	-302.482	767.836	439.310	-183.715	968.216	442.547	-323.790	695.178	67.398	-218.073	1088.813	96.277	-342.803	902.415	874.794	-220.877	899.847	868.872	-101.897	904.984	880.717	-339.858	704.708	935.381	-191.257	702.415	929.055	-246.329	768.651	433.852	-125.978	970.612	446.988	-381.570	772.857	451.530	-241.291	970.402	442.310	-267.266	674.285	68.330	-183.976	1072.532	92.603	-379.154	714.658	75.582	-247.198	1098.203	112.436	-318.818	796.783	1377.958	-203.847	917.402	1304.227	-162.135	912.206	1302.515	-268.542	910.993	1300.429	-214.508	944.092	1227.612	-218.844	949.117	555.452	-180.190	951.606	580.157	-466.829	889.532	612.724	-122.708	876.320	601.794	-403.579	862.038	527.641	-131.384	916.284	522.627	-396.770	667.186	143.109	-108.204	1131.266	249.685	-336.824	679.688	153.174	-149.375	1093.907	235.553	-341.983	784.970	38.101	-178.431	1195.325	102.136	-367.319
	154	1.55833	833.662	822.431	-218.853	818.064	796.350	-150.842	816.302	803.566	-302.789	771.263	439.028	-183.959	973.292	441.995	-323.389	695.864	67.485	-218.135	1098.981	97.437	-342.165	907.205	874.202	-221.289	904.670	868.419	-102.297	909.740	879.986	-340.282	709.530	934.595	-191.769	707.152	928.223	-246.812	772.070	433.571	-126.221	976.196	446.545	-381.137	784.055	441.521	-231.730	975.386	441.566	-267.006	674.734	68.651	-184.191	1082.641	93.454	-378.457	716.572	75.019	-246.530	1108.657	113.497	-318.371	801.805	1377.422	-204.587	921.722	1303.721	-162.944	916.995	1301.949	-269.108	915.769	1299.767	-215.136	948.526	1227.021	-219.352	953.267	554.725	-180.473	957.963	579.457	-465.943	893.934	612.004	-122.724	881.769	601.087	-403.524	872.699	528.167	-127.732	922.075	522.208	-396.683	667.716	143.759	-108.621	1139.387	251.483	-336.606	681.047	153.648	-149.628	1101.904	236.975	-341.690	785.100	38.121	-178.457	1205.585	104.078	-366.577
	155	1.56667	838.893	821.989	-219.816	823.028	795.758	-151.138	821.193	802.741	-303.094	774.730	438.700	-184.196	978.360	441.370	-323.057	696.327	67.668	-218.226	1108.310	98.353	-341.450	912.049	873.606	-221.742	909.572	868.001	-102.729	914.526	879.212	-340.755	714.417	933.768	-192.317	711.943	927.382	-247.347	775.527	433.246	-126.458	981.882	446.090	-380.758	785.834	443.786	-233.845	978.895	440.431	-265.210	675.071	69.054	-184.370	1091.890	94.074	-377.673	717.270	75.072	-246.508	1117.553	114.355	-317.619	806.615	1376.585	-205.239	926.331	1303.098	-163.591	921.988	1301.172	-269.338	920.561	1299.091	-215.765	953.401	1226.341	-219.578	957.565	554.036	-180.736	964.609	578.830	-464.991	898.611	611.598	-123.249	887.669	600.065	-403.037	875.428	527.838	-128.781	927.504	521.269	-395.636	668.394	144.372	-108.918	1147.138	252.902	-336.426	681.792	153.867	-149.795	1109.595	238.216	-341.296	785.210	38.157	-178.433	1214.970	105.613	-366.037
	156	1.57500	844.645	822.078	-220.913	828.055	795.184	-151.445	826.128	801.894	-303.412	778.277	438.324	-184.412	983.453	440.677	-322.786	696.596	67.951	-218.383	1116.791	98.976	-340.649	916.945	873.011	-222.236	914.540	867.613	-103.199	919.350	878.408	-341.274	719.350	932.935	-192.915	716.793	926.539	-247.938	779.052	432.882	-126.673	987.681	445.609	-380.421	789.955	443.053	-233.542	982.391	439.275	-264.090	675.333	69.536	-184.540	1100.284	94.425	-376.799	717.075	75.181	-246.920	1126.263	115.136	-317.062	811.364	1375.632	-205.720	931.550	1302.092	-164.185	927.117	1300.432	-269.980	925.363	1298.406	-216.377	958.718	1225.533	-220.419	962.013	553.387	-180.956	971.491	578.277	-463.987	903.142	611.126	-123.785	893.999	599.007	-403.250	879.781	527.414	-128.912	933.281	520.615	-395.309	669.263	144.928	-109.082	1154.506	253.903	-336.238	682.549	154.370	-150.235	1117.110	239.300	-341.154	785.306	38.215	-178.358	1223.485	106.682	-365.676
